<svg width="147" height="25" viewBox="0 0 147 25" fill="none" xmlns="http://www.w3.org/2000/svg">
<path d="M14.55 0.205643H10.08L7.29 12.5147L4.53 0.205643H0V19.8002H2.94V5.37603L6.39 19.8002H8.13L11.61 5.37603V19.8002H14.55V0.205643ZM26.79 5.19977L24.78 15.1586L22.59 5.19977H19.65L22.92 18.537C23.07 19.1539 23.13 19.4771 23.13 19.8296C23.13 21.2691 22.11 22.2092 20.55 22.2092C20.49 22.2092 20.28 22.2092 20.1 22.1798V25C24.3 25 25.41 23.9718 26.43 19.1833L29.67 5.19977H26.79ZM45.18 11.8684H47.22C49.23 11.8684 50.49 11.4865 51.42 10.6052C52.5 9.60635 53.01 8.13749 53.01 6.02233C53.01 3.93655 52.5 2.46769 51.42 1.46886C50.49 0.587547 49.23 0.205643 47.22 0.205643H42.09V19.8002H45.18V11.8684ZM45.18 9.07756V2.99648H46.53C49.02 2.99648 49.8 3.73091 49.8 6.02233C49.8 8.34313 49.02 9.07756 46.53 9.07756H45.18ZM67.17 10.2526C67.17 7.96122 66.9 6.9624 66 6.08108C65.19 5.31728 64.02 4.90599 62.61 4.90599C61.17 4.90599 60 5.31728 59.19 6.08108C58.32 6.9624 58.02 7.96122 58.02 10.2526V14.7474C58.02 17.0388 58.32 18.0376 59.19 18.9189C60 19.6827 61.17 20.094 62.61 20.094C64.02 20.094 65.19 19.6827 66 18.9189C66.9 18.0376 67.17 17.0388 67.17 14.7474V10.2526ZM60.81 10.0764C60.81 8.22562 61.35 7.40306 62.58 7.40306C63.84 7.40306 64.38 8.19624 64.38 10.0764V14.9236C64.38 16.7744 63.84 17.5969 62.58 17.5969C61.35 17.5969 60.81 16.7744 60.81 14.9236V10.0764ZM72.66 5.19977V19.8002H75.45V11.0165C75.45 9.63573 75.54 9.16569 75.93 8.66628C76.32 8.16686 76.92 7.90247 77.67 7.90247C78.12 7.90247 78.48 7.96122 79.02 8.16686V4.99413C77.28 4.99413 76.2 5.78731 75.45 7.72621V5.19977H72.66ZM90.87 5.19977H88.32V1.20447H85.53V5.19977H83.37V7.63807H85.53V15.7168C85.53 17.5676 85.68 18.2726 86.22 18.9189C86.82 19.6534 87.84 20.0059 89.25 20.0059C89.88 20.0059 90.36 19.9471 91.14 19.8002V17.3326C90.69 17.4794 90.42 17.5088 90.06 17.5088C88.83 17.5088 88.32 16.8919 88.32 15.423V7.63807H90.87V5.19977ZM101.55 5.19977H99.21V4.40658C99.21 2.9671 99.54 2.49706 100.53 2.49706C100.92 2.49706 101.01 2.52644 101.79 2.76146V0.205643C101.04 0.0587559 100.56 0 99.93 0C98.76 0 97.95 0.23502 97.35 0.734432C96.63 1.32198 96.42 2.05641 96.42 3.81904V5.19977H94.41V7.63807H96.42V19.8002H99.21V7.63807H101.55V5.19977ZM115.38 10.2526C115.38 7.96122 115.11 6.9624 114.21 6.08108C113.4 5.31728 112.23 4.90599 110.82 4.90599C109.38 4.90599 108.21 5.31728 107.4 6.08108C106.53 6.9624 106.23 7.96122 106.23 10.2526V14.7474C106.23 17.0388 106.53 18.0376 107.4 18.9189C108.21 19.6827 109.38 20.094 110.82 20.094C112.23 20.094 113.4 19.6827 114.21 18.9189C115.11 18.0376 115.38 17.0388 115.38 14.7474V10.2526ZM109.02 10.0764C109.02 8.22562 109.56 7.40306 110.79 7.40306C112.05 7.40306 112.59 8.19624 112.59 10.0764V14.9236C112.59 16.7744 112.05 17.5969 110.79 17.5969C109.56 17.5969 109.02 16.7744 109.02 14.9236V10.0764ZM123.66 0.205643H120.87V19.8002H123.66V0.205643ZM132.06 5.19977H129.27V19.8002H132.06V5.19977ZM132.06 0.205643H129.27V3.05523H132.06V0.205643ZM146.73 10.2526C146.73 7.96122 146.46 6.9624 145.56 6.08108C144.75 5.31728 143.58 4.90599 142.17 4.90599C140.73 4.90599 139.56 5.31728 138.75 6.08108C137.88 6.9624 137.58 7.96122 137.58 10.2526V14.7474C137.58 17.0388 137.88 18.0376 138.75 18.9189C139.56 19.6827 140.73 20.094 142.17 20.094C143.58 20.094 144.75 19.6827 145.56 18.9189C146.46 18.0376 146.73 17.0388 146.73 14.7474V10.2526ZM140.37 10.0764C140.37 8.22562 140.91 7.40306 142.14 7.40306C143.4 7.40306 143.94 8.19624 143.94 10.0764V14.9236C143.94 16.7744 143.4 17.5969 142.14 17.5969C140.91 17.5969 140.37 16.7744 140.37 14.9236V10.0764Z" fill="#333333"/>
</svg>
